# xmcd
#
# Track frame offsets:
#	150
#	11002
#	21925
#	33600
#	45392
#	59625
#	76592
#	90855
#	101990
#	117725
#	132380
#	141735
#	153157
#	163445
#	175412
#	193620
#	206845
#	218105
#	233957
#
# Disc length: 3119 seconds
#
# Revision: 0
# Processed by: cddbd v1.4PL0 Copyright (c) Steve Scherf et al.
# Submitted via: EasyCDDAExtractor 5.0.0.0
#
DISCID=190c2d13
DTITLE=Amos Milburn - The Motown Sessions, 1962-1964
DYEAR=1996
DGENRE=Blues
TTITLE0=My Daily Prayer
TTITLE1=My Baby Gave Me Another Chance
TTITLE2=I'm In My Wine
TTITLE3=I'll Make It Up To You Somehow
TTITLE4=Don't Be No Fool
TTITLE5=In The Middle Of The Night
TTITLE6=Chicken Shack Boogie
TTITLE7=Bad, Bad Whiskey
TTITLE8=One Scotch, One Burbon, One Beer
TTITLE9=It's A Long, Long Time
TTITLE10=I'm Gonna Tell My Mana
TTITLE11=Bewildered
TTITLE12=Darling How Long
TTITLE13=Hold Me Baby
TTITLE14=Baby You Thrill Me
TTITLE15=I Wanna Go Home
TTITLE16=Mama's Boy
TTITLE17=I'll Leave You In His Care
TTITLE18=data
EXTD=
EXTT0=
EXTT1=
EXTT2=Previously unreleased\n
EXTT3=
EXTT4=
EXTT5=
EXTT6=Previously unreleased\n
EXTT7=
EXTT8=
EXTT9=
EXTT10=Previously unreleased
EXTT11=Previously unreleased
EXTT12=
EXTT13=
EXTT14=
EXTT15=Previously unreleased
EXTT16=Previously unreleased
EXTT17=Previously unreleased
EXTT18=
PLAYORDER=
